<?xml version="1.0" encoding="utf-8"?>
<!-- Generator: Adobe Illustrator 22.1.0, SVG Export Plug-In . SVG Version: 6.00 Build 0)  -->
<svg version="1.1" id="Layer_1" xmlns="http://www.w3.org/2000/svg" xmlns:xlink="http://www.w3.org/1999/xlink" x="0px" y="0px"
	 viewBox="0 0 178.2 139.7" style="enable-background:new 0 0 178.2 139.7;" xml:space="preserve">
<style type="text/css">
	.st0{fill:#fff;}
</style>
<g>
	<path class="st0" d="M139.8,8c-33.9-17-75.3-3.4-92.5,30.3h4.5c11.8-21.4,34-33.7,57.1-33.7c9.8,0,19.8,2.2,29.1,6.9
		c32,16.1,45,55.3,28.9,87.3c-7.8,15.5-21.2,27.1-37.7,32.5c-6.7,2.2-13.6,3.3-20.5,3.3c-10,0-19.9-2.3-29.1-7
		c-11.2-5.6-20.4-14.2-26.6-24.7h-4.6c6.7,12.1,16.8,22,29.4,28.3c9.8,4.9,20.3,7.4,30.9,7.4c7.3,0,14.6-1.2,21.8-3.5
		c17.5-5.8,31.7-18.1,40-34.5C187.5,66.7,173.8,25.1,139.8,8z"/>
</g>
<g>
	<g>
		<path class="st0" d="M53.3,81.1C52.6,81,51.9,81,51.1,81h-4.2l-3.3,15.4h4.8c0.8,0,1.6-0.1,2.4-0.2c2-0.3,3.9-1.3,5.2-2.8
			c1.5-1.7,2.3-3.9,2.3-6.3C58.4,83.7,56.5,81.6,53.3,81.1z M55.2,87.2c0,3.9-2.4,6.4-6.1,6.4h-1.7l2.1-10h1.6
			C53,83.6,55.2,84.3,55.2,87.2z"/>
	</g>
	<g>
		<polygon class="st0" points="69.1,89.8 70,87.2 64,87.2 64.8,83.6 71,83.6 72,81 62.3,81 59,96.3 68.5,96.3 69.4,93.7 62.7,93.7 
			63.5,89.8 		"/>
	</g>
	<g>
		<path class="st0" d="M82.4,81.6c-0.9-0.6-2.2-0.9-3.6-0.9c-1.8,0-3.4,0.6-4.5,1.6c-0.9,0.9-1.3,2-1.3,3.3c0,1.9,1.3,2.9,2.4,3.7
			c1.6,1.1,2.2,1.7,2.2,2.5c0,1.8-1.9,1.9-2.7,1.9c-1,0-2-0.4-2.7-1l-0.3-0.3l-1.6,2.1l0.3,0.3c1,1.1,2.6,1.7,4.4,1.7
			c2.9,0,5.9-1.7,5.9-4.9c0-2-1.1-3.1-3.2-4.5c-1.1-0.7-1.5-1.3-1.5-2c0-1.5,1.6-1.7,2.5-1.7c0.9,0,1.9,0.2,2.5,0.5l0.4,0.2l1.2-2.3
			L82.4,81.6z"/>
	</g>
	<g>
		<polygon class="st0" points="82.4,96.3 85.5,96.3 88.8,81 85.7,81 		"/>
	</g>
	<g>
		<path class="st0" d="M98.3,83.4c1.5,0,2.5,0.2,3.3,0.7l0.4,0.2l1.3-2.3l-0.3-0.2c-1-0.7-2.6-1.1-4.4-1.1c-5.3,0-9.3,4.2-9.3,9.7
			c0,3.9,2.2,6.2,6.1,6.2c1.6,0,3-0.3,4.7-0.9l0.2-0.1l1.5-7.1h-3.1l-1.1,5.1c-0.7,0.2-1.2,0.3-1.8,0.3c-2.2,0-3.4-1.3-3.4-3.7
			C92.5,86.4,95.1,83.4,98.3,83.4z"/>
	</g>
	<g>
		<polygon class="st0" points="115.9,81 113.8,91.1 108.8,81 106.3,81 103,96.3 106.1,96.3 108.2,86.2 113.2,96.3 115.7,96.3 
			118.9,81 		"/>
	</g>
</g>
<g>
	<path class="st0" d="M6.3,67.7C5.6,71,6.3,72,8.3,72c0.7,0,1.4,0,2.4-0.2l0.1,2.9C9.5,75.2,8,75.5,6,75.5c-3.4,0-4.5-1.7-4.5-3.8
		c0-1.3,0.2-3,0.7-5.2L4,57.6H0.9l0.7-3.2h3.2l0.9-4.2H10l-0.9,4.2h5.6l-1.1,3.2H8.4L6.3,67.7z"/>
</g>
<g>
	<path class="st0" d="M35.1,59c0,1.3-0.2,2.3-0.6,4.5l-2.4,11.4h-4.4l2.5-11.5c0.2-1.2,0.4-2.2,0.4-3c0-2.3-1-3.2-3.2-3.2
		c-1.7,0-3.2,0.6-4.8,1.7l-3.4,16.1h-4.4l6-28.7h4.4l-2,9.5c2.1-1.3,4.2-1.9,6.2-1.9C33.4,53.8,35.1,56.2,35.1,59z"/>
</g>
<g>
	<path class="st0" d="M42,54.4h4.4L42,75h-4.3L42,54.4z M43.8,46.3h4.4l-0.8,3.9H43L43.8,46.3z"/>
</g>
<g>
	<path class="st0" d="M68.5,59c0,1.3-0.2,2.3-0.6,4.5l-2.4,11.4H61l2.5-11.5c0.2-1.2,0.4-2.1,0.4-3c0-2.3-1-3.2-3.2-3.2
		c-1.7,0-3.3,0.7-4.8,2l-3.4,15.8h-4.3l4.4-20.6h4.4l-0.3,1.4c2.1-1.2,4.2-1.9,6.1-1.9C66.8,53.8,68.5,56.2,68.5,59z"/>
</g>
<g>
	<path class="st0" d="M81.8,63.7l6.6,11.2H83l-5.9-11l-2.3,11h-4.4l6-28.7h4.4l-3.6,17.2l10.1-9.1h5.4L81.8,63.7z"/>
</g>
<g>
	<path class="st0" d="M96.8,54.4l4.4,0l-4.4,20.6h-4.3L96.8,54.4z M98.6,46.3h4.4l-0.8,3.8h-4.4L98.6,46.3z"/>
</g>
<g>
	<path class="st0" d="M123.2,59c0,1.3-0.2,2.3-0.6,4.5l-2.4,11.4h-4.4l2.5-11.5c0.2-1.2,0.4-2.1,0.4-3c0-2.3-1-3.2-3.2-3.2
		c-1.7,0-3.3,0.7-4.8,2l-3.4,15.8h-4.3l4.4-20.6h4.4l-0.3,1.4c2.1-1.2,4.2-1.9,6.1-1.9C121.5,53.8,123.2,56.2,123.2,59z"/>
</g>
<g>
	<path class="st0" d="M146.9,55.2l-4,18.7c-1.5,6.9-5.3,9.7-11.5,9.7c-2.4,0-4.9-0.6-6.6-1.7l1.4-2.8c1.7,0.9,3.8,1.1,5.5,1.1
		c3.9,0,6.1-1.7,7-6.4c-1.4,0.9-2.8,1.2-4.2,1.2c-4.6,0-7.9-2.6-7.9-7.9c0-6.8,4.8-13.3,12.7-13.3C141.8,53.8,144.7,54.3,146.9,55.2
		z M139.2,70.8l2.8-13.2c-1.2-0.2-2.3-0.4-3.3-0.4c-4.6,0-7.7,4.3-7.7,9.5c0,3.4,1.8,4.8,4.5,4.8C136.9,71.5,138,71.4,139.2,70.8z"
		/>
</g>
</svg>
