<?xml version="1.0" standalone="no"?>
<!DOCTYPE svg PUBLIC "-//W3C//DTD SVG 20010904//EN"
 "http://www.w3.org/TR/2001/REC-SVG-20010904/DTD/svg10.dtd">
<svg version="1.0" xmlns="http://www.w3.org/2000/svg"
 width="1080.000000pt" height="1080.000000pt" viewBox="0 0 1080.000000 1080.000000"
 preserveAspectRatio="xMidYMid meet">
<metadata>
Created by potrace 1.11, written by Peter Selinger 2001-2013
</metadata>
<g transform="translate(0.000000,1080.000000) scale(0.100000,-0.100000)"
fill="#000000" stroke="none">
<path d="M0 5400 l0 -5400 5400 0 5400 0 0 5400 0 5400 -5400 0 -5400 0 0
-5400z m6945 3731 c98 -11 210 -26 265 -36 94 -17 410 -93 435 -105 11 -5 54
-20 95 -34 150 -49 268 -98 424 -177 88 -44 172 -89 187 -100 15 -10 30 -19
33 -19 29 0 370 -240 496 -349 537 -464 910 -1046 1108 -1726 18 -62 30 -111
62 -260 15 -71 28 -148 39 -230 6 -44 16 -120 22 -170 17 -134 14 -575 -5
-715 -30 -213 -32 -229 -56 -335 -71 -316 -137 -509 -271 -794 -315 -668 -889
-1256 -1564 -1600 -71 -36 -150 -75 -175 -85 -25 -10 -63 -27 -85 -36 -22 -10
-62 -25 -90 -35 -27 -9 -59 -20 -70 -25 -23 -10 -182 -62 -240 -78 -65 -19
-114 -30 -225 -53 -236 -48 -275 -53 -505 -68 -88 -6 -173 -13 -190 -15 -42
-5 -353 11 -455 24 -200 26 -266 40 -575 120 -16 4 -57 17 -90 29 -33 12 -85
31 -115 41 -174 58 -440 182 -610 285 -441 266 -821 624 -1099 1035 -77 114
-171 265 -171 275 0 3 47 5 105 5 l104 0 48 -76 c328 -521 803 -943 1370
-1216 89 -43 165 -78 168 -78 4 0 30 -11 58 -24 96 -43 413 -142 512 -159 17
-3 57 -10 90 -17 281 -54 640 -74 887 -50 155 15 319 39 413 60 241 54 338 83
555 169 558 220 1011 557 1398 1041 70 88 232 321 232 334 0 2 18 34 41 71
158 260 299 631 377 990 81 378 87 827 15 1235 -46 262 -111 495 -188 675 -7
17 -23 55 -36 85 -214 509 -598 1007 -1030 1332 -203 153 -442 298 -623 378
-100 44 -322 133 -381 152 -66 21 -181 51 -300 78 -27 7 -68 16 -90 21 -140
32 -425 59 -629 59 -156 0 -458 -20 -521 -34 -11 -3 -49 -10 -85 -16 -36 -6
-81 -15 -100 -20 -19 -5 -64 -16 -100 -25 -349 -81 -716 -238 -1028 -438 -428
-276 -795 -656 -1061 -1099 l-52 -88 -105 0 c-57 0 -104 1 -104 3 0 4 52 102
80 152 50 90 213 327 296 430 181 227 483 509 729 680 257 179 618 362 907
459 67 23 286 82 353 95 33 7 78 17 100 21 22 5 72 14 110 20 39 6 94 16 124
21 30 5 79 9 110 10 31 0 76 4 101 9 55 10 451 4 575 -9z m-4659 -2360 c-94
-445 -95 -451 -75 -451 8 0 24 7 36 15 12 9 53 27 90 42 59 23 84 26 183 27
129 1 173 -14 224 -75 49 -58 58 -94 52 -209 -4 -96 -9 -130 -35 -245 -5 -22
-18 -85 -29 -140 -63 -303 -73 -352 -78 -367 -5 -16 -19 -18 -105 -18 -54 0
-99 2 -99 4 0 3 45 216 61 291 5 22 13 60 18 85 5 25 21 99 35 165 32 150 34
256 6 303 -55 89 -209 91 -357 4 -54 -32 -49 -19 -99 -262 -20 -96 -40 -191
-44 -210 -4 -19 -11 -51 -15 -70 -3 -19 -11 -55 -16 -80 -10 -44 -16 -71 -40
-178 l-11 -53 -102 3 c-84 3 -100 6 -97 18 6 22 20 88 31 145 5 28 14 70 20
95 6 25 14 68 20 95 9 47 29 142 81 390 24 112 35 166 48 228 4 23 25 123 46
222 21 99 41 196 44 215 l6 35 95 5 c52 3 99 3 104 1 4 -2 6 -15 2 -30z m1175
-38 c-26 -117 -16 -108 -116 -111 -115 -4 -116 -4 -103 50 6 24 14 61 17 83
l6 40 95 5 c52 3 99 2 104 -2 6 -4 4 -31 -3 -65z m1684 60 c-3 -10 -15 -61
-26 -113 -10 -52 -31 -151 -45 -220 -15 -69 -30 -143 -34 -165 -4 -22 -13 -62
-19 -90 -6 -27 -19 -90 -30 -140 -10 -49 -20 -97 -22 -105 -10 -40 44 -2 202
140 94 85 206 185 248 223 l76 67 120 0 120 -1 -40 -37 c-22 -20 -81 -72 -130
-114 -50 -42 -148 -127 -220 -188 -71 -61 -131 -118 -133 -126 -2 -8 31 -74
74 -147 43 -73 92 -157 109 -187 18 -30 55 -95 84 -143 28 -49 51 -90 51 -93
0 -2 -56 -4 -124 -4 l-124 0 -137 258 c-174 324 -164 308 -180 291 -7 -8 -20
-54 -30 -104 -9 -49 -21 -108 -26 -130 -5 -22 -14 -62 -19 -90 -5 -27 -15 -72
-21 -100 -6 -27 -14 -66 -18 -85 l-6 -35 -104 -3 -104 -3 8 33 c4 18 11 51 16
73 5 22 14 63 19 90 5 28 14 68 19 90 5 22 21 101 36 175 15 74 31 153 36 175
5 22 14 63 19 90 5 28 14 68 19 90 5 22 26 121 46 220 20 99 46 221 56 270 11
50 22 105 25 123 l7 32 104 0 c96 0 105 -2 98 -17z m1138 -5 c-6 -33 -15 -77
-25 -115 l-11 -43 -98 0 -99 0 6 43 c5 36 13 68 28 122 5 16 202 9 199 -7z
m-4779 -208 c-1 -14 -7 -50 -14 -80 -7 -30 -13 -66 -14 -80 l-1 -25 138 -3
c103 -2 138 -6 135 -15 -2 -7 -12 -38 -22 -69 l-20 -58 -127 0 c-96 0 -129 -3
-138 -14 -6 -8 -21 -60 -32 -117 -12 -57 -25 -122 -30 -144 -5 -22 -14 -62
-19 -90 -5 -27 -15 -70 -20 -95 -21 -91 -31 -176 -25 -210 12 -71 45 -90 153
-90 l80 0 4 -56 c1 -31 0 -60 -3 -66 -10 -16 -140 -38 -227 -38 -138 0 -203
45 -217 149 -6 45 6 174 24 261 5 25 14 68 19 95 5 28 24 119 41 202 18 84 31
165 29 180 -3 27 -5 28 -76 31 -65 3 -73 5 -67 20 4 9 9 33 12 52 11 66 16 70
97 70 81 0 91 6 99 60 12 75 26 140 32 150 4 7 43 10 98 8 91 -3 92 -3 91 -28z
m6786 -175 c109 -15 229 -42 243 -55 5 -4 2 -36 -7 -71 -8 -35 -24 -109 -35
-164 -25 -119 -72 -339 -91 -425 -4 -19 -17 -80 -29 -135 -52 -248 -58 -269
-109 -374 -33 -66 -120 -163 -176 -196 -89 -52 -170 -69 -316 -69 -112 1 -147
4 -205 23 -78 25 -125 48 -125 59 0 5 12 32 26 61 19 38 31 51 43 47 144 -45
263 -56 365 -32 133 32 207 107 251 260 21 73 13 84 -46 58 -24 -11 -60 -25
-80 -31 -42 -13 -159 -15 -191 -2 -13 5 -41 14 -63 21 -101 32 -184 135 -211
261 -36 166 23 400 134 539 103 128 219 195 387 225 95 17 114 17 235 0z
m-3895 -26 c55 -26 100 -87 117 -158 12 -54 1 -175 -28 -311 -8 -36 -19 -87
-25 -115 -6 -27 -15 -68 -20 -90 -5 -22 -13 -60 -18 -85 -21 -109 -53 -254
-57 -262 -7 -11 -204 -10 -204 0 0 8 25 128 50 242 4 19 13 60 20 90 7 30 16
71 20 90 74 326 68 418 -31 467 -77 38 -166 24 -282 -47 -58 -35 -67 -48 -85
-135 -10 -45 -66 -311 -93 -440 -6 -27 -15 -66 -19 -85 -4 -19 -13 -57 -18
-85 -6 -27 -13 -62 -16 -77 l-6 -28 -101 0 c-100 0 -101 0 -95 23 4 12 9 36
12 52 3 17 9 46 14 65 4 19 13 60 20 90 6 30 15 73 20 95 5 22 21 96 35 165
14 69 30 143 34 165 5 22 15 67 21 100 7 33 16 74 20 90 4 17 13 57 20 90 22
110 16 105 125 105 l95 0 0 -35 c0 -40 10 -43 54 -16 31 19 145 56 201 65 61
9 174 -3 220 -25z m2796 7 c141 -59 163 -194 89 -526 -6 -25 -14 -65 -19 -90
-5 -25 -19 -92 -31 -150 -13 -58 -30 -141 -39 -185 l-16 -80 -104 -3 -103 -3
7 28 c4 15 16 71 27 123 11 52 24 111 28 130 4 19 13 60 20 90 7 30 16 71 20
90 15 66 39 195 45 246 23 183 -123 264 -312 175 -79 -38 -119 -74 -127 -113
-3 -18 -10 -51 -15 -73 -5 -22 -21 -98 -36 -170 -15 -71 -31 -146 -35 -165 -4
-19 -13 -60 -20 -90 -7 -30 -16 -75 -22 -100 -6 -25 -15 -72 -22 -105 l-11
-60 -99 -3 -99 -3 7 38 c10 64 27 146 56 273 4 19 20 94 35 165 15 72 31 148
36 170 5 22 14 63 19 90 22 102 35 162 58 265 l8 35 99 0 100 0 -3 -32 c-4
-38 4 -40 56 -14 131 66 308 87 403 47z m-3817 -21 c-1 -17 -20 -110 -54 -265
-4 -19 -13 -57 -19 -85 -5 -27 -26 -126 -46 -220 -20 -93 -41 -192 -47 -220
-5 -27 -15 -70 -20 -95 -6 -25 -13 -63 -17 -85 l-6 -40 -104 -3 -103 -3 7 28
c4 15 11 44 15 63 14 65 81 384 101 485 12 55 29 138 39 185 10 47 25 123 35
170 9 47 18 91 21 98 3 9 28 12 101 10 91 -3 98 -4 97 -23z m2816 13 c-1 -7
-5 -33 -10 -58 -6 -25 -15 -67 -20 -95 -5 -27 -14 -68 -19 -90 -19 -86 -67
-309 -97 -455 -15 -69 -30 -143 -35 -165 -5 -22 -15 -67 -21 -100 l-13 -60
-99 -3 -99 -3 6 38 c4 21 11 58 17 83 5 25 14 65 19 90 11 59 81 394 92 445 5
22 13 60 18 85 19 98 51 256 56 278 5 21 10 22 105 22 74 0 100 -3 100 -12z
m-1040 -1352 c104 -31 104 -30 70 -96 l-20 -39 -47 14 c-105 32 -201 12 -229
-49 -23 -47 -6 -86 55 -131 101 -75 120 -92 145 -130 34 -50 36 -145 6 -204
-56 -111 -211 -166 -359 -127 -56 16 -131 59 -131 77 0 5 14 28 31 49 l32 39
41 -24 c109 -63 243 -31 262 63 6 30 2 37 -47 85 -30 28 -76 69 -102 90 -87
70 -107 150 -63 250 51 115 213 175 356 133z m1028 3 c55 -13 109 -35 117 -49
5 -7 -40 -100 -48 -100 -1 0 -26 9 -55 20 -137 52 -291 3 -373 -120 -47 -70
-69 -141 -69 -225 0 -127 62 -188 192 -188 78 0 93 9 101 61 4 20 12 60 18 87
6 28 14 66 18 85 l6 35 68 3 c42 2 67 -1 67 -8 0 -6 -12 -68 -26 -138 -15 -70
-29 -143 -33 -162 -6 -33 -11 -37 -71 -57 -51 -18 -87 -23 -171 -23 -122 0
-158 11 -219 67 -37 33 -47 49 -79 126 -16 39 -14 175 4 242 8 31 25 77 37
103 30 61 140 171 202 201 96 47 219 62 314 40z m-2399 -20 c155 -49 211 -126
211 -292 0 -140 -45 -250 -137 -339 -96 -93 -179 -118 -422 -125 -168 -6 -174
-5 -166 13 9 23 9 22 40 174 37 178 64 308 75 358 6 23 14 61 19 85 5 23 15
63 22 90 l12 47 155 0 c87 0 171 -5 191 -11z m905 -11 c-3 -12 -13 -36 -20
-55 l-14 -33 -155 0 c-143 0 -155 -1 -165 -20 -13 -24 -32 -114 -34 -155 l-1
-30 148 -3 c113 -2 148 -6 144 -15 -3 -6 -13 -31 -22 -54 l-17 -43 -138 0
c-87 0 -141 -4 -145 -11 -12 -18 -45 -191 -39 -200 3 -5 77 -9 165 -9 178 0
175 2 144 -74 l-15 -36 -231 0 -231 0 5 28 c10 53 27 137 36 177 5 22 14 65
21 95 7 30 16 71 20 90 11 47 61 289 67 320 3 14 6 31 8 38 3 9 60 12 240 12
l236 0 -7 -22z m871 5 c-3 -10 -10 -36 -15 -58 -20 -98 -63 -303 -70 -335 -28
-122 -47 -211 -62 -285 l-13 -60 -69 -3 c-67 -3 -68 -2 -64 20 3 13 15 70 27
128 12 58 25 123 30 145 21 91 33 142 41 180 26 127 32 154 40 190 5 22 11 52
15 68 5 26 7 27 76 27 64 0 70 -2 64 -17z m1104 -119 c36 -72 93 -186 125
-253 69 -141 78 -143 102 -20 8 41 18 92 23 114 5 22 15 67 21 100 7 33 16 74
20 90 5 17 11 47 15 68 l6 37 64 0 c36 0 65 -3 65 -7 -1 -5 -5 -26 -9 -48 -5
-22 -21 -101 -36 -175 -15 -74 -31 -153 -36 -175 -5 -22 -14 -62 -19 -90 -13
-59 -25 -117 -42 -200 l-13 -60 -59 0 -59 0 -123 248 c-72 143 -130 247 -138
247 -8 0 -16 -15 -19 -37 -4 -21 -11 -56 -16 -78 -4 -22 -18 -87 -30 -145 -34
-169 -43 -214 -47 -227 -2 -9 -25 -13 -69 -13 -62 0 -65 1 -65 24 0 12 4 36 9
52 5 16 14 54 20 84 7 30 16 73 21 95 5 22 21 96 35 165 14 69 30 143 35 165
5 22 14 65 21 95 6 30 13 61 15 68 3 9 20 12 60 10 l57 -3 66 -131z"/>
<path d="M8060 6256 c-80 -17 -123 -42 -184 -101 -91 -90 -146 -231 -146 -376
0 -92 19 -152 63 -197 55 -57 81 -66 192 -67 114 0 179 20 188 59 3 11 14 66
26 121 11 55 32 154 46 220 53 246 66 318 57 327 -8 8 -126 28 -162 27 -14 0
-50 -6 -80 -13z"/>
<path d="M3547 4904 c-2 -5 -15 -56 -27 -114 -12 -58 -26 -123 -31 -145 -5
-22 -14 -62 -19 -90 -5 -27 -14 -70 -20 -95 -18 -86 -22 -82 88 -78 111 4 166
25 226 87 48 51 71 96 86 174 23 113 -12 201 -95 244 -33 18 -199 31 -208 17z"/>
</g>
</svg>
